<?xml version="1.0" standalone="no"?>
<!DOCTYPE svg PUBLIC "-//W3C//DTD SVG 20010904//EN"
 "http://www.w3.org/TR/2001/REC-SVG-20010904/DTD/svg10.dtd">
<svg version="1.0" xmlns="http://www.w3.org/2000/svg"
 width="500.000000pt" height="500.000000pt" viewBox="0 0 500.000000 500.000000"
 preserveAspectRatio="xMidYMid meet">
<metadata>
Created by potrace 1.14, written by Peter Selinger 2001-2017
</metadata>
<g transform="translate(0.000000,500.000000) scale(0.100000,-0.100000)"
fill="#000000" stroke="none">
<path d="M0 2500 l0 -2500 2500 0 2500 0 0 2500 0 2500 -2500 0 -2500 0 0
-2500z m1960 175 c0 -33 -2 -35 -35 -35 -33 0 -35 2 -35 35 0 33 2 35 35 35
33 0 35 -2 35 -35z m-120 -10 l0 -35 -90 0 -90 0 0 -45 0 -45 75 0 75 0 0 -30
0 -29 -72 -3 -73 -3 -3 -77 -3 -78 -34 0 -35 0 0 190 0 190 125 0 125 0 0 -35z
m761 -1 c57 -57 47 -154 -21 -189 -18 -9 -56 -15 -100 -15 l-70 0 0 -70 c0
-63 -2 -70 -20 -70 -19 0 -20 7 -20 183 0 101 3 187 8 191 4 4 49 6 99 4 88
-3 94 -4 124 -34z m-641 -204 l0 -140 -35 0 -35 0 0 140 0 140 35 0 35 0 0
-140z m130 120 c0 -20 0 -20 33 0 37 23 105 26 131 7 23 -17 35 -80 36 -184
l0 -83 -40 0 -40 0 0 98 c0 63 -4 102 -12 110 -18 18 -49 14 -75 -10 -21 -19
-23 -30 -23 -110 l0 -88 -40 0 -40 0 0 140 0 140 35 0 c28 0 35 -4 35 -20z
m770 5 c36 -19 48 -56 52 -172 3 -75 1 -93 -10 -93 -8 0 -16 9 -19 19 -5 19
-5 19 -36 0 -72 -43 -167 -11 -167 57 0 61 47 89 140 82 l50 -3 0 31 c0 59
-58 78 -147 49 -36 -12 -28 14 10 30 42 19 91 19 127 0z m182 -105 c27 -63 51
-116 52 -118 2 -2 25 51 51 117 29 76 52 121 61 121 8 0 14 -3 14 -7 0 -5 -33
-88 -72 -187 -73 -179 -97 -216 -133 -202 -21 8 -19 23 4 29 11 2 29 23 40 45
l20 40 -59 136 c-33 75 -60 139 -60 142 0 3 7 4 17 2 10 -2 34 -46 65 -118z
m286 -52 c28 -28 7 -78 -33 -78 -27 0 -45 18 -45 45 0 27 18 45 45 45 12 0 26
-5 33 -12z"/>
<path d="M2410 2580 l0 -90 69 0 c53 0 74 4 93 20 32 25 40 65 23 108 -17 39
-47 52 -126 52 l-59 0 0 -90z"/>
<path d="M2732 2444 c-28 -19 -29 -57 -2 -84 25 -25 66 -25 108 0 26 16 32 26
32 54 0 22 -6 36 -16 40 -30 11 -100 6 -122 -10z"/>
</g>
</svg>
