<svg width="64" height="54" viewBox="0 0 64 54" fill="none" xmlns="http://www.w3.org/2000/svg">
<g id="Component 101">
<path id="Vector" d="M9.11227 24.3452C6.83591 24.1256 6.50752 23.8979 6.24115 22.319H5.71349C4.42535 22.319 3.13822 22.3301 1.85008 22.319C0.50398 22.3037 0.026125 21.8107 0.00782457 20.4595C-0.000308931 19.8332 0.015976 19.2059 0.000725629 18.5796C-0.0206248 17.7124 0.430783 17.1471 1.14246 16.7496C2.18965 16.1589 3.24193 15.5763 4.2942 14.9866C12.8344 10.1743 21.3708 5.35623 29.9036 0.532388C31.1439 -0.172177 32.2419 -0.179303 33.4762 0.522211C43.0195 5.93303 52.5764 11.3215 62.1468 16.6876C63.0699 17.2071 63.4969 17.9076 63.3861 18.9649C63.3373 19.4336 63.3912 19.9125 63.3912 20.3883C63.3912 21.8116 62.892 22.3129 61.4595 22.32C60.1551 22.3281 58.8507 22.32 57.5463 22.32H57.0095C56.5469 24.0128 56.434 24.0972 54.239 24.3635C54.6538 31.7356 55.0686 39.1157 55.4865 46.5528C55.6898 46.5629 55.8728 46.5771 56.0518 46.5792C58.2204 46.6046 59.8704 48.2211 59.8572 50.3094C59.844 52.3977 58.1726 53.9939 55.9989 53.9959C50.6796 54.0014 45.3589 54.0014 40.0369 53.9959C29.1773 53.9959 18.318 53.9959 7.45914 53.9959C5.68603 53.9959 4.32266 53.09 3.77975 51.567C2.90845 49.127 4.6419 46.6056 7.23649 46.5944C7.77025 46.5944 7.90141 46.4379 7.93089 45.9224C8.31012 39.259 8.71678 32.5977 9.10922 25.9353C9.1387 25.4178 9.11227 24.8963 9.11227 24.3452ZM31.6624 13.7229C30.7535 13.912 29.7948 14.0421 28.8797 14.3146C26.8687 14.9134 24.8821 15.5936 22.8813 16.2229C20.4921 16.9732 18.1029 17.7083 15.7045 18.4444C14.4265 18.8378 13.8155 19.766 13.9659 21.0969C14.0056 21.4507 14.0391 21.8086 14.09 22.1563C15.6618 33.0857 21.6277 40.9213 31.0768 46.3179C31.5679 46.5985 31.939 46.5212 32.3761 46.2732C35.9284 44.2398 39.1442 41.7804 41.8435 38.6826C46.2804 33.593 48.7662 27.6627 49.4158 20.9566C49.5389 19.6939 48.9268 18.845 47.7261 18.4668C43.2405 17.0546 38.7558 15.6312 34.2621 14.2404C33.4467 13.9892 32.5795 13.9028 31.6624 13.7229Z" fill="white"/>
<path id="Vector_2" d="M37.3242 26.3723C36.2953 26.3723 35.3488 26.3824 34.4033 26.3601C34.2894 26.3601 34.1491 26.2015 34.078 26.0825C34.0068 25.9636 34.0292 25.8203 34.0017 25.6871C33.6916 24.1885 32.5539 23.5022 31.0909 23.9343C30.3294 24.16 29.9817 24.7354 29.8709 25.4715C29.7448 26.3316 29.8974 27.1297 30.7148 27.5913C31.5678 28.0732 32.4655 28.4748 33.3439 28.913C34.0261 29.2516 34.7317 29.5494 35.3854 29.9348C36.9166 30.8396 37.4757 32.2478 37.4005 33.9751C37.3283 35.674 36.6288 36.9865 35.0621 37.7256C34.4582 38.0113 33.7882 38.1679 33.1365 38.3356C32.8539 38.4099 32.7369 38.5167 32.7512 38.8105C32.7705 39.21 32.7512 39.6126 32.7512 40.0396H30.9435C30.9435 39.6472 30.9222 39.2639 30.9496 38.8837C30.974 38.5471 30.8245 38.4475 30.5216 38.3347C29.5771 37.9808 28.5899 37.6718 27.7399 37.1492C26.3237 36.2779 25.8377 34.8942 26.0115 33.2268H29.1501C29.2111 33.5399 29.2517 33.8571 29.3351 34.1652C29.5679 35.0528 30.1485 35.617 31.0432 35.7705C31.5443 35.8499 32.0548 35.8499 32.556 35.7705C33.3815 35.6455 33.899 35.0782 34.0465 34.2455C34.2071 33.3396 34.0271 32.5172 33.1934 32.0312C32.3323 31.531 31.4082 31.1416 30.5155 30.6963C29.8343 30.3567 29.1277 30.0568 28.4882 29.6501C26.9906 28.6985 26.3532 27.2833 26.5087 25.5346C26.6602 23.8286 27.5254 22.581 29.0911 21.8633C29.5859 21.6428 30.1006 21.4702 30.6283 21.3478C31.0431 21.2462 31.1723 21.0428 31.1367 20.6361C31.1031 20.2681 31.1296 19.896 31.1296 19.4873H32.9413C32.9413 19.8991 32.9647 20.3169 32.9352 20.7307C32.9057 21.1445 33.0226 21.295 33.4435 21.421C34.1471 21.6325 34.8669 21.8938 35.4769 22.3015C36.8738 23.249 37.3791 24.6551 37.3242 26.3723Z" fill="white"/>
</g>
</svg>
