<svg width="57" height="60" viewBox="0 0 57 60" fill="none" xmlns="http://www.w3.org/2000/svg">
<g id="Component 99">
<path id="Vector" d="M0.0682749 32.0031C-0.0782381 31.1744 0.0553818 30.3411 0.12688 29.5241C0.336734 27.0746 0.871618 24.6639 1.71743 22.3555C2.9624 18.9367 4.85916 15.792 7.3025 13.0959C10.9888 9.02403 15.4885 6.29769 20.7641 4.81264C21.888 4.49069 23.035 4.25558 24.1949 4.10937C24.5348 4.06718 24.6461 3.97694 24.611 3.59718C24.5008 2.39577 24.1996 1.21547 24.223 0H25.0435C25.0505 0.253174 25.2779 0.290658 25.4338 0.385598C28.8962 2.4274 32.3609 4.46571 35.828 6.50048C36.2371 6.7349 36.3355 6.89666 35.9194 7.23422C32.6977 9.85739 29.4818 12.488 26.2718 15.126C26.2144 15.174 26.1476 15.2104 26.021 15.2936C25.7866 14.4087 25.7725 13.5355 25.6319 12.6845C25.6131 12.5673 25.6119 12.4501 25.6026 12.3329C25.5686 11.9004 25.4443 11.7105 24.9122 11.8066C21.3338 12.4274 17.9868 13.9948 15.2189 16.3462C11.6147 19.3936 9.27399 23.2311 8.25074 27.8492C7.98467 29.0482 7.79947 30.2661 7.82642 31.5003C7.83697 31.9691 7.67054 32.1098 7.21694 32.0934C5.72602 32.043 5.87488 32.3278 5.96514 30.7747C6.20717 26.1807 7.9009 21.7821 10.8024 18.2121C14.3023 13.8425 18.8266 11.1104 24.3332 10.0402C25.1552 9.8758 25.988 9.77083 26.8251 9.72612C27.1955 9.70854 27.3654 9.84332 27.3842 10.2172C27.4017 10.5478 27.4803 10.8736 27.5014 11.2041C27.5213 11.5886 27.6631 11.6659 27.9573 11.421C29.6076 10.0496 31.2568 8.67667 32.9048 7.30218C33.0911 7.1463 33.1544 7.01736 32.8931 6.86265C30.8278 5.646 28.7672 4.42352 26.641 3.16468C26.5344 3.73432 26.6774 4.21956 26.7278 4.70481C26.8286 5.64836 26.8591 5.65657 25.939 5.73979C23.7019 5.93493 21.4999 6.42196 19.3892 7.18849C13.4537 9.36392 8.83093 13.1475 5.58186 18.5755C3.65266 21.8027 2.45252 25.4127 2.06554 29.1526C1.9624 30.1008 1.81941 31.042 1.84168 31.9984L0.0682749 32.0031Z" fill="black"/>
<path id="Vector_2" d="M22.6996 59.9989C22.7699 59.618 22.8356 59.2359 22.9082 58.8549C23.1051 57.827 22.9996 58.0614 23.8904 58.1517C24.8516 58.2489 24.8422 58.2818 24.7109 59.2441C24.6904 59.4951 24.6833 59.7471 24.6898 59.9989H22.6996Z" fill="black"/>
<path id="Vector_3" d="M30.3158 59.9986C30.3158 59.9013 30.3264 59.804 30.3252 59.7068C30.3252 58.3799 30.3252 58.3846 31.6532 58.3577C31.9427 58.3518 32.0962 58.4514 32.1361 58.7292C32.1959 59.1523 32.2533 59.5755 32.3072 59.9986H30.3158Z" fill="black"/>
<path id="Vector_4" d="M26.5664 59.9987C26.5664 59.6084 26.5816 59.2192 26.5816 58.8266C26.5816 58.4667 26.7504 58.3577 27.1032 58.4011C28.2296 58.5324 28.232 58.5183 28.4043 59.6482C28.4218 59.7654 28.4289 59.8826 28.4418 59.9998L26.5664 59.9987Z" fill="black"/>
<path id="Vector_5" d="M28.3831 47.5933C20.2756 47.7504 13.0074 41.1561 13.0285 32.3747C13.0508 23.6402 19.8994 17.1983 28.3479 17.237C36.6815 17.2733 43.6028 24.2227 43.5337 32.5587C43.4645 41.0952 36.5983 47.7492 28.3831 47.5933ZM41.745 32.5189C41.7779 25.0831 35.779 19.1675 28.1592 19.1229C21.082 19.0819 15.0316 25.1135 14.9847 32.2505C14.939 39.684 20.8687 45.691 28.3338 45.7719C35.6583 45.8492 41.7146 39.8645 41.7486 32.5189H41.745Z" fill="black"/>
<path id="Vector_6" d="M0.0685327 32.0033L1.8349 31.9951C2.00368 32.5284 1.92398 33.0805 1.95211 33.6243C1.95687 33.6432 1.95687 33.6629 1.95211 33.6818C1.66495 34.2678 1.13164 33.8998 0.721403 33.9807C0.492842 34.0252 0.100184 34.1248 0.102528 33.6865C0.106045 33.125 -0.104939 32.5671 0.0685327 32.0033Z" fill="black"/>
<path id="Vector_7" d="M10.4662 53.9904C10.3009 53.9833 9.12533 52.9636 9.13002 52.8124C9.14164 52.7187 9.1785 52.63 9.23667 52.5557C9.3083 52.4641 9.38666 52.3779 9.47109 52.2979C10.4252 51.3027 10.5401 51.3074 11.4754 52.3658C11.5338 52.4171 11.5823 52.4787 11.6184 52.5475C11.6875 52.7315 10.6643 53.9997 10.4662 53.9904Z" fill="black"/>
<path id="Vector_8" d="M43.1645 56.1018C43.127 56.1498 43.0942 56.226 43.0356 56.2612C42.6019 56.5226 42.1858 56.9234 41.7193 56.9996C41.0067 57.1168 41.1332 56.2799 40.8226 55.9201C40.641 55.7138 40.58 55.4607 40.9398 55.3235C40.993 55.2986 41.044 55.2691 41.0922 55.2356C42.2561 54.5324 42.5362 54.6284 43.0848 55.9131L43.1645 56.1018Z" fill="black"/>
<path id="Vector_9" d="M8.93904 50.2108C8.88981 50.2717 8.82184 50.3667 8.74566 50.4452C8.54489 50.6308 8.35361 50.8264 8.17251 51.0313C7.8326 51.4685 7.53604 51.4849 7.24653 50.9937C7.23668 50.977 7.22571 50.961 7.21371 50.9457C6.35456 49.8791 6.37565 49.7466 7.53486 48.9895C7.61256 48.9348 7.70216 48.8994 7.79624 48.8863C7.92166 48.8758 8.94373 50.0385 8.93904 50.2108Z" fill="black"/>
<path id="Vector_10" d="M49.3636 39.9276C49.1468 40.4351 49.0437 41.0786 48.6674 41.4361C48.3474 41.7432 47.9055 41.1829 47.5047 41.0423C47.3031 40.9708 46.9983 40.8969 47.0944 40.5734C47.2234 40.1456 47.4004 39.7319 47.5574 39.3123C47.5645 39.2935 47.5703 39.2677 47.5844 39.2607C48.0673 39.0181 48.4107 39.4541 48.8292 39.5314C49.0261 39.5713 49.3062 39.6064 49.3636 39.9276Z" fill="black"/>
<path id="Vector_11" d="M36.0368 58.9897C36.0509 59.3039 35.2034 59.8442 34.5517 59.7223C33.7617 59.5734 34.1474 58.733 33.934 58.2279C33.8356 57.9934 34.792 57.5574 35.3992 57.5527C35.6629 57.5516 36.0087 58.3287 36.0368 58.9897Z" fill="black"/>
<path id="Vector_12" d="M47.7486 50.0698C47.983 50.1355 48.1201 50.3406 48.2854 50.4965C49.1305 51.3017 49.1281 51.3041 48.3065 52.1257C47.7497 52.6813 47.7498 52.6813 47.2059 52.1257C46.4253 51.324 46.4229 51.3216 47.2223 50.5211C47.3864 50.357 47.5141 50.153 47.7486 50.0698Z" fill="black"/>
<path id="Vector_13" d="M49.0085 35.762C49.386 36.0186 50.2416 35.6225 50.3283 36.3175C50.3893 36.8133 50.4338 37.6877 49.7282 37.8612C49.0859 38.0194 48.2619 37.5166 48.2748 37.2412C48.3182 36.2625 48.5467 35.7491 49.0085 35.762Z" fill="black"/>
<path id="Vector_14" d="M56.5569 34.7391C56.394 35.0297 56.8241 35.801 55.9931 35.7119C55.5243 35.6627 54.6815 35.9604 54.6194 35.1669C54.5151 33.826 54.644 33.7416 55.5043 33.7603C56.5499 33.7885 56.578 33.8119 56.5569 34.7391Z" fill="black"/>
<path id="Vector_15" d="M0.322907 36.3996C0.322907 36.0035 0.940619 35.7479 1.86072 35.7597C2.16312 35.7597 2.54054 36.4852 2.38817 37.1873C2.22056 37.9538 1.38603 37.5987 0.873818 37.8108C0.6183 37.9163 0.31939 37.1545 0.322907 36.3996Z" fill="black"/>
<path id="Vector_16" d="M28.3244 53.5101C28.3068 54.565 28.5014 54.4877 27.3047 54.4783C27.1312 54.4783 26.9531 54.4408 26.7843 54.4244C26.4526 54.3927 26.2791 54.2568 26.3952 53.8911C26.4284 53.7588 26.4457 53.6231 26.4467 53.4867C26.503 52.5396 26.5018 52.5396 27.4653 52.6029C28.3244 52.6604 28.3244 52.6604 28.3244 53.5101Z" fill="black"/>
<path id="Vector_17" d="M38.6812 56.4228C38.8769 56.3912 38.9567 56.4486 38.9977 56.54C39.1876 56.9667 39.3751 57.3945 39.5544 57.8294C39.5759 57.8747 39.5803 57.9262 39.5667 57.9745C39.5531 58.0227 39.5225 58.0645 39.4806 58.0919C39.0249 58.3525 38.5392 58.5568 38.0342 58.7002C37.9849 58.7086 37.9341 58.6982 37.8921 58.6711C37.85 58.644 37.8196 58.6021 37.8068 58.5537C37.6333 58.0989 37.4634 57.643 37.3028 57.1835C37.2954 57.1481 37.2968 57.1115 37.3068 57.0768C37.3168 57.042 37.3352 57.0103 37.3603 56.9843C37.8221 56.7745 38.2909 56.5811 38.6812 56.4228Z" fill="black"/>
<path id="Vector_18" d="M39.4958 51.3651C39.5098 51.521 38.3131 52.2571 37.958 52.311C37.7786 52.3379 37.2172 51.3827 37.1516 50.9373C37.1211 50.731 38.0998 50.0113 38.4772 49.9633C38.6565 49.9398 39.4665 51.0569 39.4958 51.3651Z" fill="black"/>
<path id="Vector_19" d="M24.0592 54.135C23.3911 54.1256 22.5929 53.7599 22.5894 53.461C22.5894 52.9488 22.9621 51.9947 23.1754 51.9924C23.9408 51.983 24.7097 52.3358 24.6921 52.6956C24.6429 53.6099 24.4108 54.1397 24.0592 54.135Z" fill="black"/>
<path id="Vector_20" d="M34.424 53.6598C34.1462 53.6657 33.7442 52.8182 33.7336 52.2041C33.7336 51.9509 34.628 51.4773 35.1296 51.4668C35.3641 51.4668 35.9431 52.558 35.9278 52.9741C35.9184 53.2308 35.0089 53.6469 34.424 53.6598Z" fill="black"/>
<path id="Vector_21" d="M17.6607 56.5659C17.4942 56.9972 17.4262 57.5516 17.118 57.8763C16.7663 58.2455 16.3549 57.7415 15.9845 57.6055C15.7501 57.5211 15.2942 57.4883 15.4055 57.1039C15.538 56.6456 15.8193 56.2295 16.0408 55.7981C16.073 55.7504 16.1199 55.7146 16.1744 55.6962C16.3069 55.6481 17.5692 56.2318 17.6267 56.3678C17.6444 56.4325 17.6558 56.4989 17.6607 56.5659Z" fill="black"/>
<path id="Vector_22" d="M8.03652 34.9239C8.06348 35.5427 7.54425 35.9389 6.6429 35.8182C5.8447 35.7115 6.12131 34.8465 6.11311 34.3835C6.0967 33.3989 7.0414 33.8596 7.48212 33.8221C8.4491 33.7377 7.57236 34.7469 8.03652 34.9239Z" fill="black"/>
<path id="Vector_23" d="M41.5176 47.9189C41.8294 48.0643 41.997 48.3292 42.1881 48.5683C42.7472 49.2716 42.7472 49.2716 42.0521 49.7943C41.1683 50.4671 41.1601 50.473 40.5436 49.5341C40.41 49.3313 40.042 49.1075 40.2846 48.8531C40.6301 48.4636 41.0492 48.1462 41.5176 47.9189Z" fill="black"/>
<path id="Vector_24" d="M16.9832 51.3824C16.8332 51.3883 15.5497 50.6112 15.5099 50.4752C15.4947 50.4034 15.5033 50.3284 15.5345 50.2619C15.5794 50.1762 15.6324 50.0949 15.6928 50.0193C16.505 48.8566 16.6222 48.839 17.7486 49.7169C17.8096 49.7638 17.8881 49.8048 17.9198 49.8681C18.0053 50.031 17.1673 51.3731 16.9832 51.3824Z" fill="black"/>
<path id="Vector_25" d="M21.1922 51.6841C21.0621 52.0182 20.8804 52.4893 20.6917 52.957C20.6733 53.0039 20.6378 53.042 20.5923 53.0638C20.5468 53.0855 20.4948 53.0893 20.4468 53.0742C19.9611 52.9351 19.4948 52.7354 19.059 52.48C19.0178 52.4528 18.9863 52.4134 18.9688 52.3673C18.9514 52.3213 18.9489 52.2708 18.9617 52.2233C18.9682 52.1652 18.9853 52.1088 19.0121 52.0568C19.2383 51.6525 19.2629 50.9539 19.638 50.8683C20.0541 50.7722 20.5757 51.1262 21.0445 51.2891C21.1629 51.3254 21.259 51.3899 21.1922 51.6841Z" fill="black"/>
<path id="Vector_26" d="M10.3959 42.2237C10.4158 42.4464 10.2787 42.5297 10.1415 42.6035C8.69983 43.3642 9.12648 43.6115 8.24272 42.096C7.9954 41.6717 8.0751 41.4748 8.53574 41.2755C9.82506 40.734 9.81333 40.7129 10.3232 42.0291C10.3513 42.1065 10.3783 42.1792 10.3959 42.2237Z" fill="black"/>
<path id="Vector_27" d="M2.67532 39.2666C2.92029 39.2666 3.45127 40.2922 3.42549 40.7153C3.41494 40.9005 2.19476 41.476 1.8572 41.4561C1.68841 41.4456 1.20433 40.2477 1.20902 39.8538C1.21605 39.6382 2.13615 39.2678 2.67532 39.2666Z" fill="black"/>
<path id="Vector_28" d="M12.4683 45.2645C12.3944 45.5141 12.1506 45.663 11.949 45.8294C10.9727 46.63 11.2305 46.5737 10.5425 45.7052C9.9412 44.9433 9.94119 44.9316 10.764 44.3514C10.9867 44.1932 11.1731 43.9095 11.5118 43.9998C11.6595 44.042 12.4683 45.1086 12.4683 45.2645Z" fill="black"/>
<path id="Vector_29" d="M50.2487 47.3633C50.612 47.627 51.0445 47.9259 51.4536 48.2518C51.5509 48.3303 51.436 48.4721 51.3715 48.5647C51.2548 48.7677 51.1139 48.9559 50.9519 49.125C50.7175 49.3325 50.639 49.8658 50.2662 49.7204C49.7857 49.5329 49.4165 49.1121 49.0941 48.6901C49.0706 48.6462 49.0622 48.5958 49.0702 48.5466C49.0783 48.4974 49.1024 48.4523 49.1387 48.4182C49.3919 48.0971 49.6497 47.7782 49.9076 47.4594C49.9755 47.3786 50.0588 47.3422 50.2487 47.3633Z" fill="black"/>
<path id="Vector_30" d="M30.6101 54.4417C30.2866 54.4815 30.2515 54.2518 30.2245 54.0384C30.1788 53.6739 30.1519 53.3071 30.1179 52.9414C30.1179 52.9027 30.0979 52.8546 30.1179 52.8242C30.4777 52.21 31.1141 52.6319 31.5947 52.4374C31.8291 52.3424 31.9112 52.5546 31.9557 52.7691C32.2534 54.2072 32.0671 54.4405 30.6101 54.4417Z" fill="black"/>
<path id="Vector_31" d="M44.9074 55.0305C44.8537 55.0339 44.8001 55.022 44.7528 54.9963C44.7056 54.9706 44.6665 54.9321 44.6401 54.8851C44.5686 54.7926 44.5006 54.6976 44.4303 54.605C43.6942 53.6451 43.7083 53.6674 44.6073 52.8879C44.9718 52.575 45.1805 52.5796 45.5052 52.9547C46.4897 54.0952 46.4264 53.8561 45.3176 54.7539C45.1828 54.8629 45.0293 54.9496 44.9074 55.0305Z" fill="black"/>
<path id="Vector_32" d="M6.76716 38.2175C6.76251 38.1786 6.76251 38.1393 6.76716 38.1003C7.00862 37.5447 7.58762 37.7171 8.00606 37.5295C8.2229 37.4311 8.47491 37.4568 8.57337 37.7569C8.58945 37.792 8.60353 37.828 8.61555 37.8647C8.69877 38.2738 9.12189 38.745 8.87927 39.0533C8.57452 39.44 7.95802 39.4928 7.46573 39.6627C7.33797 39.7073 7.22077 39.6803 7.17857 39.5455C7.02972 39.0908 6.89375 38.6266 6.76716 38.2175Z" fill="black"/>
<path id="Vector_33" d="M55.0508 41.654C54.8527 42.1017 54.6617 42.546 54.4648 42.9867C54.4539 43.0143 54.4377 43.0395 54.417 43.0608C54.3964 43.0821 54.3718 43.0991 54.3446 43.1109C54.3173 43.1227 54.288 43.1289 54.2584 43.1293C54.2287 43.1297 54.1993 43.1243 54.1717 43.1133C53.724 42.9281 53.2833 42.7288 52.8437 42.5272C52.8027 42.5085 52.7535 42.4217 52.7664 42.3877C52.943 41.897 53.1278 41.4082 53.3208 40.9214C53.3365 40.8982 53.3579 40.8793 53.3829 40.8666C53.4079 40.8539 53.4357 40.8477 53.4638 40.8487C53.9904 40.9762 54.4977 41.1733 54.9723 41.4348C55.0156 41.4653 55.0215 41.5696 55.0508 41.654Z" fill="black"/>
<path id="Vector_34" d="M51.9681 44.2329C52.4159 44.4802 52.9562 44.6279 53.3641 45.0006C53.4813 45.112 53.3641 45.2937 53.3032 45.4367C52.7605 46.7178 52.267 46.8268 51.2297 45.8938C51.1976 45.8718 51.1681 45.8463 51.1418 45.8176C51.0304 45.6394 51.722 44.247 51.9681 44.2329Z" fill="black"/>
<path id="Vector_35" d="M46.6221 44.8731C46.4733 44.8731 45.368 44.0585 45.3328 43.9073C45.266 43.6388 45.4829 43.4794 45.6012 43.2907C46.1674 42.3812 46.1721 42.3847 47.1098 42.9532C47.7579 43.3458 47.7591 43.3458 47.3442 44.001C47.1988 44.2354 47.0476 44.4582 46.8953 44.6832C46.8273 44.7781 46.7616 44.8801 46.6221 44.8731Z" fill="black"/>
<path id="Vector_36" d="M21.1934 57.8536C20.7726 58.2685 21.2415 59.2367 20.4057 59.1933C19.9498 59.1699 19.0461 59.2719 19.0086 58.4584C18.9758 57.7329 19.5278 56.9933 19.7951 57.1117C20.2592 57.3156 20.9074 57.2207 21.1934 57.8536Z" fill="black"/>
<path id="Vector_37" d="M4.72295 44.0369C4.74288 44.1811 4.63858 44.2444 4.53895 44.303C3.01522 45.1926 3.30472 45.3848 2.5745 43.8013C2.40338 43.4309 2.46784 43.2668 2.83471 43.0922C4.05604 42.5061 4.33501 42.6233 4.68546 43.9255C4.69601 43.963 4.71006 43.9982 4.72295 44.0369Z" fill="black"/>
<path id="Vector_38" d="M14.6096 54.9694C14.3752 55.3785 14.1408 55.852 13.7388 56.1978C13.5665 56.3455 13.3766 56.145 13.2148 56.0489C12.0521 55.3457 12.0709 55.3621 12.8632 54.2755C13.1398 53.8981 13.3543 53.8536 13.7024 54.1419C13.9099 54.3142 14.1607 54.4349 14.3858 54.5885C14.4556 54.6239 14.5139 54.6786 14.5536 54.7461C14.5932 54.8136 14.6127 54.8912 14.6096 54.9694Z" fill="black"/>
<path id="Vector_39" d="M50.7058 33.0977C50.5827 33.3954 51.0024 34.0213 50.1643 34.0002C48.9828 33.9709 48.8129 33.9018 48.8293 33.236C48.8609 31.9338 48.6288 32.1167 50.0576 32.1049C50.7128 32.0944 50.7128 32.1038 50.7058 33.0977Z" fill="black"/>
<path id="Vector_40" d="M45.3798 46.7085C45.3715 46.7988 44.3014 47.8994 44.1713 47.8912C43.9509 47.8783 43.8502 47.6849 43.7154 47.5524C42.9031 46.7577 42.9371 46.7812 43.6122 45.9115C43.9697 45.4508 44.2217 45.4075 44.5991 45.8376C44.7935 46.0285 44.999 46.2078 45.2145 46.3745C45.2977 46.4483 45.4044 46.5186 45.3798 46.7085Z" fill="black"/>
<path id="Vector_41" d="M55.3403 39.4763C54.4835 39.3895 53.874 39.0567 54.0357 38.766C54.2842 38.3182 53.7826 37.3899 54.7015 37.4403C55.1375 37.4649 55.9908 37.2165 56.0459 38.0264C56.0986 38.868 55.6732 39.5091 55.3403 39.4763Z" fill="black"/>
<path id="Vector_42" d="M13.9427 46.4844C14.1537 46.7844 14.2943 47.0974 14.5287 47.2838C14.9894 47.6495 15.0913 47.8886 14.626 48.4008C13.7399 49.3748 13.8911 49.2376 13.0648 48.4418C12.4963 47.8956 12.5022 47.8874 13.0777 47.3154C13.3015 47.0868 13.5418 46.8665 13.9427 46.4844Z" fill="black"/>
<path id="Vector_43" d="M6.63471 47.2145C6.64201 47.2798 6.632 47.346 6.60566 47.4063C6.57933 47.4666 6.5376 47.5188 6.48468 47.5579C5.50831 48.5612 5.19538 48.519 4.47922 47.3235C4.29169 47.0117 4.27058 46.796 4.64448 46.6354C4.80388 46.5663 4.93869 46.4385 5.0981 46.3706C5.35361 46.2615 5.59388 45.9017 5.87284 46.1092C6.24205 46.3905 6.42959 46.8452 6.63471 47.2145Z" fill="black"/>
<path id="Vector_44" d="M28.3631 43.0171C22.8776 43.1519 18.0274 38.46 17.9067 32.9042C17.7813 27.1023 22.3138 22.1982 27.852 22.0236C33.7782 21.8384 38.7116 26.3381 38.8253 32.2807C38.9484 38.6815 33.7688 43.1496 28.3631 43.0171ZM28.3267 25.0453C27.3891 25.0453 27.3515 25.0453 27.3996 25.7684C27.4289 26.2267 27.2414 26.3826 26.8487 26.5502C25.2828 27.2172 24.4529 29.0117 24.8679 30.6772C25.1867 31.9583 26.3494 33.3437 28.4533 33.4059C29.3171 33.4317 29.9384 34.1092 29.9876 34.9554C30.0208 35.3478 29.9118 35.739 29.6805 36.0577C29.4492 36.3764 29.111 36.6013 28.7276 36.6913C27.9001 36.8894 27.0058 36.4979 26.7971 35.6903C26.6377 35.0785 26.3353 34.987 25.8208 35.0527C25.6461 35.0761 25.4691 35.0761 25.2945 35.0527C24.8069 34.98 24.7331 35.2238 24.8057 35.6294C25.0402 36.9187 25.7739 37.813 26.9495 38.365C27.1464 38.4576 27.3984 38.4729 27.3961 38.8128C27.3937 39.1527 27.2132 39.6145 27.5039 39.7985C27.7571 39.9579 28.1861 39.8419 28.5365 39.8478C28.5755 39.8442 28.6148 39.8442 28.6538 39.8478C29.1226 39.9263 29.357 39.7739 29.2632 39.2617C29.1695 38.7495 29.3711 38.5022 29.8774 38.2842C31.3472 37.6536 32.1443 35.9482 31.8161 34.3412C31.6551 33.5817 31.2512 32.8952 30.6654 32.3856C30.0796 31.8759 29.3439 31.5709 28.5694 31.5165C28.3165 31.5064 28.0654 31.4695 27.8204 31.4063C27.0503 31.1836 26.6038 30.4908 26.6635 29.6563C26.6943 29.2834 26.8498 28.9317 27.105 28.658C27.3602 28.3843 27.7002 28.2045 28.0701 28.1478C28.8167 28.0248 29.6782 28.4244 29.8387 29.164C29.9911 29.8673 30.3896 29.8274 30.8808 29.8075C31.0563 29.7928 31.2327 29.7928 31.4082 29.8075C31.8184 29.8579 31.9122 29.6727 31.8524 29.3C31.6367 27.9779 30.8983 27.0531 29.6922 26.5198C29.3406 26.365 29.248 26.1869 29.2574 25.8306C29.2808 25.0406 29.2574 25.0406 28.4486 25.0406L28.3267 25.0453Z" fill="black"/>
</g>
</svg>
