<svg width="79" height="52" viewBox="0 0 79 52" fill="none" xmlns="http://www.w3.org/2000/svg">
<g id="Component 100">
<path id="Vector" d="M62.7091 37.4073C65.2525 37.4587 67.6302 39.33 67.6302 41.8739V47.9999C67.6302 50.2091 65.8393 51.9999 63.6302 51.9999H4C1.79086 51.9999 0 50.2091 0 47.9999V14.1626C0 11.9535 1.79086 10.1626 4 10.1626H36.343C38.9494 10.1626 40.8474 12.638 40.8203 15.2443C40.8194 15.329 40.819 15.4137 40.8191 15.4985C40.8167 18.3747 41.3814 21.2227 42.4804 23.8807C43.5793 26.5386 45.191 28.9541 47.2239 30.9887C49.2568 33.0234 51.6708 34.6379 54.3278 35.7391C56.9848 36.8404 59.8329 37.4073 62.7091 37.4073Z" fill="white"/>
<path id="Vector_2" d="M62.7661 31.1471C71.3671 31.1471 78.3396 24.1746 78.3396 15.5736C78.3396 6.97252 71.3671 0 62.7661 0C54.165 0 47.1925 6.97252 47.1925 15.5736C47.1925 24.1746 54.165 31.1471 62.7661 31.1471Z" fill="white"/>
<path id="Vector_3" d="M59.0883 10.1067L61.2941 12.4635C61.8597 13.0668 62.3501 13.6319 62.8592 14.2541C63.3682 13.5942 63.8769 13.0285 64.386 12.3686L66.5545 10.0312H69.5709L64.311 15.3293L69.7408 20.9856H66.5545L64.2921 18.5156C63.6888 17.8745 63.1795 17.2712 62.6327 16.6302C62.1048 17.2901 61.5771 17.8745 60.9926 18.5156L58.7675 20.9856H55.6567L61.1431 15.3293L55.9205 9.97412L59.0883 10.1067Z" fill="black"/>
</g>
</svg>
